<svg width="262px"
     height="28px"
     viewBox="0 0 262 28"
     version="1.1"
     xmlns="http://www.w3.org/2000/svg">
    <!-- Generator: Sketch 44.1 (41455) - http://www.bohemiancoding.com/sketch -->
    <desc>Created with Sketch.</desc>
    <defs></defs>
    <g id="Headers" stroke="none" stroke-width="1" fill="none" fill-rule="evenodd">
        <g id="First-Level-Navigation-Header---Normal---Opened" transform="translate(-228.000000, -29.000000)" fill="#FEFEFE">
            <g id="top">
                <g id="logo" transform="translate(228.000000, 29.000000)">
                    <path d="M70,17 L73.4768308,5 L77,17 L70,17 Z M79.7747314,2.73966519 C79.0229097,0.519644687 78.6014573,0 76.4772138,0 L71.2947388,0 L63,27 L67.2222428,27 L69.0053106,21.1855142 L78.8608126,21.1855142 L80.6515994,27 L88,27 L79.7747314,2.73966519 Z" id="Fill-1"></path>
                    <path d="M31.027186,24 L29,24 L29,4 L32.6632177,4 C34.4290931,4 35.9466423,5.38815891 35.9466423,7.06229711 C35.9466423,7.65280569 35.831406,8.20003092 35.2292554,9.02859793 L32.8563603,12.4201577 C35.3396226,12.9874787 37,14.7899212 37,18.1598392 C37,22.2547534 34.4290931,24 31.027186,24 M38.3518354,10.5805827 L39.6998319,8.62764626 C42.5318757,4.48975643 40.5818158,0 34.9724612,0 L23,0 L23,27 L34.5471073,27 C44.7008678,27 47.742461,15.3776463 38.3518354,10.5805827" id="Fill-3"></path>
                    <path d="M8.01423632,24 L6,24 L6,4 L9.65426073,4 C11.4260728,4 12.9635957,5.38815891 12.9635957,7.06229711 C12.9635957,7.65280569 12.8480781,8.20003092 12.234696,9.02859793 L9.83648566,12.4201577 C12.3388245,12.9874787 14,14.7899212 14,18.1598392 C14,22.2547534 11.4260728,24 8.01423632,24 M15.3437145,10.5805827 L16.6790383,8.62764626 C19.5248102,4.48975643 17.576551,0 11.9538059,0 L0,0 L0,27 L11.5425762,27 C21.6872842,27 24.7566525,15.3776463 15.3437145,10.5805827" id="Fill-5"></path>
                    <path d="M61.6470435,0 L55.436366,20.5086251 L50.2125049,3.51699402 C49.2319541,0.474978651 48.7385459,0 46.8573293,0 L42,0 L51.0003916,27 L57.6151938,27 L66,0 L61.6470435,0 Z" id="Fill-7"></path>
                    <path d="M111.524018,21.280228 C111.301481,21.7482748 110.990856,22.1458146 110.629234,22.4848485 C110.065164,22.9978998 109.329556,23.3744374 108.470316,23.6234623 C107.600258,23.8844884 106.608113,24 105.506246,24 L100,24 L100,14 L105.062717,14 C106.183129,14 107.17991,14.0915092 108.049968,14.2985299 C108.70058,14.4365437 109.260013,14.6525653 109.746813,14.90009 C110.490148,15.2886289 111.038764,15.8106811 111.417386,16.4737474 C111.796008,17.1368137 112,17.9588959 112,19.0045005 C112,19.9060906 111.828461,20.6651665 111.524018,21.280228 L111.524018,21.280228 Z M100,3 L105.023249,3 C105.885189,3 106.693456,3.07526882 107.413318,3.22119816 C107.961108,3.33640553 108.464696,3.50384025 108.895666,3.73425499 C109.553961,4.05529954 110.060706,4.48387097 110.433266,5.07066052 C110.79004,5.67434716 111,6.44086022 111,7.43932412 C111,8.33947773 110.834242,9.03686636 110.540614,9.61136713 C110.32434,10.0537634 110.018083,10.40553 109.670781,10.7004608 C109.143513,11.1474654 108.45996,11.4807988 107.646958,11.7004608 C106.84027,11.9001536 105.940442,12 104.945896,12 L100,12 L100,3 Z M113.519125,14.8169607 C112.931427,14.1285145 112.185562,13.5875925 111.362164,13.2157086 C110.941937,13.006716 110.510855,12.8453614 110.059614,12.6993739 C110.26275,12.6102447 110.456582,12.5149687 110.644211,12.4058623 C111.521881,11.914115 112.317367,11.2610131 112.855445,10.3697211 C113.405927,9.46152533 113.717609,8.34280023 113.717609,6.95361411 C113.717609,5.67199772 113.475706,4.55788275 113.019814,3.65583381 C112.681771,2.95663062 112.222777,2.37421742 111.65989,1.91320433 C110.830289,1.20478088 109.806857,0.716107001 108.665575,0.428742174 C107.521192,0.113716562 106.245003,0 104.902136,0 L97,0 L97,0.468696642 L97,27 L105.506892,27 C106.863715,27 108.13215,26.8601594 109.257926,26.5712578 C110.132495,26.3576551 110.920227,26.0533865 111.605617,25.6492316 C112.670917,25.0499146 113.512922,24.2170176 114.095968,23.1705179 C114.682116,22.1086511 115,20.8546955 115,19.3733068 C115,18.2269209 114.820124,17.2634035 114.497588,16.4428002 C114.240179,15.8004553 113.912991,15.271827 113.519125,14.8169607 L113.519125,14.8169607 Z" id="Fill-9"></path>
                    <path d="M131,23.0079317 C130.290204,23.8767541 129.540549,24.6170429 128.663652,25.1295505 C127.737697,25.6762253 126.62318,26 125.128468,26 C124.522919,26 123.955695,25.9267846 123.442128,25.7689648 C123.0696,25.6599553 122.738464,25.4940004 122.437989,25.2873703 C122.004139,24.9896278 121.65614,24.5828757 121.400123,24.041082 C121.142572,23.4895261 121,22.8061826 121,21.9520033 C121,21.2182225 121.13644,20.6487696 121.400123,20.1720561 C121.602484,19.8092333 121.844703,19.5017287 122.160509,19.2056132 C122.626552,18.8004881 123.245899,18.5108806 123.995554,18.3009965 C124.720681,18.0992475 125.563851,18 126.509735,18 C128.166948,18 129.63713,18.2310352 131,18.5466748 L131,23.0079317 Z M132.425147,8.72402019 C131.791749,8.10518112 130.966601,7.65157363 129.998428,7.38190321 C129.06169,7.11846793 127.988212,7 126.826719,7 C122.867583,7.02338183 120.642043,8.15973872 119.196071,8.97810273 C120.264833,11.2196407 121.396464,10.6740647 122.862868,10.0474317 C123.985069,9.56888361 125.278585,9.36935867 126.644401,9.36935867 C127.269941,9.37091746 127.959921,9.5158848 128.627898,9.65149941 C129.02554,9.75749703 129.380747,9.90402316 129.674656,10.0739311 C130.150884,10.3685422 130.490373,10.7317399 130.749705,11.2071704 C131.001179,11.6841597 131.141061,12.3170279 131.141061,13.1229216 L131.141061,16.0534442 C129.644794,15.722981 128.137525,15.5748961 126.421218,15.5748961 C125.218861,15.5748961 124.115521,15.6902464 123.09391,15.9302999 C122.347348,16.1142369 121.671513,16.3636431 121.023969,16.6909887 C120.099804,17.1944774 119.339096,17.8756681 118.801572,18.7283254 C118.271906,19.5996882 118,20.6269299 118,21.820962 C118,22.7920873 118.17446,23.6993023 118.498232,24.4693438 C119.012181,25.618171 119.892338,26.5269448 120.984676,27.1099317 C122.095874,27.705389 123.394106,28 124.862083,28 L124.866798,28 C126.557957,28 127.898625,27.6898011 129.047544,27.1582542 C129.830255,26.776351 130.515521,26.3149495 131.141061,25.7615796 C131.156778,26.0296912 131.172495,26.2494804 131.208644,26.4552405 C131.238507,26.6781473 131.293517,26.8776722 131.39725,27.0616093 C131.463261,27.1956651 131.55442,27.3297209 131.672299,27.4341597 C131.853045,27.5806859 132.062083,27.6788895 132.275835,27.727212 C132.491159,27.786446 132.737917,27.8020338 132.998821,27.8020338 L134,27.8020338 L134,13.0028949 C134,11.9351247 133.823969,11.0247922 133.484479,10.2344863 C133.228291,9.64370546 132.876228,9.14021675 132.425147,8.72402019 L132.425147,8.72402019 Z" id="Fill-11"></path>
                    <path d="M154.652673,8.56732859 C154.107022,7.94889472 153.418957,7.55863619 152.678087,7.32259273 C151.929217,7.09127014 151.124341,7 150.287462,7 C148.413686,7 146.709526,7.409142 145.174981,8.04960659 C143.958867,8.56418134 142.883566,9.19205695 141.915474,9.89861371 L141.915474,9.67358561 C141.915474,9.22510303 141.905873,8.87733233 141.87227,8.57362308 C141.843468,8.35803672 141.789062,8.15503934 141.725056,7.9614837 C141.677052,7.83244661 141.595444,7.69711502 141.489834,7.59010865 C141.422628,7.5114275 141.33942,7.44690895 141.243411,7.39183215 C141.092997,7.31000375 140.950584,7.2659423 140.80977,7.25177969 C140.670557,7.23289622 140.531344,7.22974897 140.38413,7.21715999 L139,7.21715999 L139,28 L141.915474,28 L141.915474,12.6650431 C142.984375,11.8624953 144.186088,11.1103035 145.419804,10.5359311 C146.75273,9.93008617 148.132059,9.55241664 149.535392,9.55241664 C150.073042,9.55241664 150.570689,9.59333084 151.015531,9.69404271 C151.32596,9.77744474 151.617188,9.89861371 151.86041,10.0386662 C152.220444,10.2778569 152.506871,10.586287 152.722892,11.0489322 C152.943712,11.5162982 153.066924,12.1347321 153.066924,12.9829149 L153.066924,28 L156,28 L156,12.7751967 C156,11.6862495 155.843185,10.7766954 155.543957,10.0024728 C155.303934,9.45327838 155.019108,8.96545523 154.652673,8.56732859" id="Fill-13"></path>
                    <path d="M192.550636,20.4613447 C192.087746,21.9556288 191.330289,23.0654912 190.330867,23.8296842 C189.317919,24.590777 188.03896,25 186.512023,25 C185.479538,25 184.567283,24.8155396 183.776763,24.4683201 C182.593988,23.9552412 181.669711,23.0654912 181.003931,21.8254214 C180.360694,20.5760512 180,18.9748111 180,17.0124007 C180,15.719628 180.154798,14.5756636 180.461387,13.5789576 C180.91526,12.0986243 181.678728,10.9624104 182.684162,10.1920171 C183.689595,9.40457276 184.968555,9 186.512023,9 C187.523468,9 188.443237,9.17826003 189.22474,9.52857973 C190.416532,10.06646 191.339306,10.9670606 191.979538,12.2303817 C192.646821,13.4720016 193,15.0871924 193,17.0124007 C193,18.3144739 192.843699,19.4754892 192.550636,20.4613447 M191.999594,8.63308643 C190.49501,7.5496009 188.61428,6.99380717 186.499229,7.00005205 C185.08714,7.00005205 183.80146,7.24047967 182.634483,7.70572274 C180.895578,8.44574023 179.472698,9.69315369 178.499959,11.3652185 C177.530304,13.0435283 177,15.129316 177,17.5039291 C177,19.1057391 177.235862,20.5514273 177.684462,21.8487997 C178.34426,23.7784656 179.492738,25.325633 181.003489,26.3888227 C182.52503,27.4317165 184.393428,28 186.499229,28 C187.895903,28 189.19854,27.742399 190.376308,27.2677886 C192.107505,26.5511894 193.533469,25.3100208 194.496957,23.645762 C195.485112,21.9830645 196,19.8957156 196,17.5039291 C196,15.9146088 195.768763,14.4455023 195.334037,13.1699869 C194.657282,11.2293925 193.518053,9.67754151 191.999594,8.63308643" id="Fill-15"></path>
                    <path d="M225.785445,8.57362308 C225.279121,8.00711877 224.642334,7.59482952 223.9574,7.3477707 C223.258487,7.10385912 222.492789,7 221.694475,7 C220.045041,7 218.499667,7.40127389 217.128245,8.02128138 C215.978922,8.5547396 214.956956,9.20779318 214.053029,9.92693893 C213.91014,9.56972649 213.736188,9.24083927 213.535833,8.95443987 C213.026403,8.26519296 212.350788,7.74589734 211.581984,7.43431997 C210.828711,7.11959535 210.000888,7 209.15598,7 C207.449079,7 205.888174,7.43431997 204.535389,8.07635819 C203.528955,8.56418134 202.614156,9.13855377 201.820501,9.71607344 L201.820501,9.67358561 C201.820501,9.2298239 201.815842,8.87733233 201.77546,8.57834395 C201.759929,8.35803672 201.717994,8.15503934 201.665187,7.9614837 C201.612381,7.83244661 201.542489,7.69711502 201.430663,7.59010865 C201.359219,7.5114275 201.280009,7.43431997 201.188374,7.39183215 C201.036166,7.31000375 200.905702,7.2659423 200.758154,7.25177969 C200.610606,7.23289622 200.475483,7.22974897 200.334147,7.21715999 L199,7.21715999 L199,28 L201.820501,28 L201.820501,12.5092544 C202.777235,11.7240165 203.763479,11.0095916 204.819614,10.4729861 C205.944087,9.90805545 207.132239,9.55241664 208.485023,9.55241664 C208.978922,9.55241664 209.421566,9.59962533 209.806745,9.69876358 C210.101842,9.78216561 210.345684,9.90490821 210.558465,10.0449607 C210.876858,10.2778569 211.125361,10.5799925 211.308631,11.0158861 C211.496561,11.4738104 211.608387,12.0654927 211.608387,12.8523042 L211.608387,28 L214.442867,28 L214.442867,12.4872237 C215.385622,11.7240165 216.378079,11.0158861 217.420235,10.477707 C218.540049,9.91277632 219.723541,9.55241664 221.01886,9.55241664 C221.556246,9.55241664 222.023741,9.59962533 222.413579,9.69876358 C222.707122,9.78216561 222.958731,9.90490821 223.17617,10.0449607 C223.491458,10.2762833 223.727535,10.573698 223.909252,11.0158861 C224.084757,11.4706632 224.185711,12.056051 224.185711,12.8523042 L224.185711,28 L227,28 L227,12.3172724 C227,11.3951293 226.858664,10.6067441 226.59929,9.90805545 C226.397382,9.3934807 226.117817,8.94185088 225.785445,8.57362308" id="Fill-17"></path>
                    <path d="M171.363265,24.7729537 C170.508679,25.1882388 169.378728,25.5114118 167.897446,25.5114118 C166.767495,25.5114118 165.800547,25.3334325 164.941214,24.9837187 C164.30344,24.7214334 163.74796,24.3717196 163.249452,23.9236488 C162.513559,23.2601294 161.94067,22.3967735 161.530786,21.3086016 C161.139892,20.2313583 160.918333,18.937105 160.918333,17.4648725 C160.918333,16.1643744 161.105076,15.0246822 161.44691,14.0317449 C161.94067,12.5517062 162.771517,11.4198201 163.866652,10.6485763 C164.95071,9.87577132 166.308551,9.46829232 167.897446,9.46516988 C169.245792,9.46516988 170.276042,9.68998587 171.060995,10.0147201 C172.532781,10.639209 173.564613,11.3761059 174.639175,9.13106832 C171.701934,6.77830645 168.755197,7.03746933 167.927515,7 C166.484216,7 165.131122,7.24198944 163.93312,7.69630511 C162.117918,8.42227344 160.619228,9.65251654 159.590561,11.3089733 C158.55398,12.9732362 157.99217,15.0605903 158.000082,17.4648725 C158.000082,19.035462 158.216894,20.4983273 158.650517,21.7910193 C159.315194,23.7347409 160.454641,25.2850346 162.016633,26.3638391 C163.580208,27.4223478 165.525181,28 167.796162,28 L167.80091,28 C169.587626,28 171.060995,27.648725 172.222598,27.170991 C172.371359,27.1101033 172.516955,27.0507769 172.659386,26.9852056 C173.596264,26.5433797 174.476171,25.8736153 175,25.3833916 C173.764016,23.2164151 172.785991,24.0454241 171.363265,24.7729537" id="Fill-19"></path>
                    <path d="M233,15 C233.130435,14.0950722 233.348874,13.3066202 233.650602,12.6047785 C234.189628,11.3832753 234.95495,10.4902937 235.894709,9.89746142 C236.853326,9.29118965 237.972237,9 239.281299,9 C240.142483,9 240.937664,9.11199602 241.616553,9.33897461 C242.122577,9.51816824 242.584599,9.75709308 242.986904,10.0915879 C243.58879,10.5739174 244.071241,11.2160279 244.42483,12.1105027 C244.717129,12.8914883 244.929282,13.8337481 245,15 L233,15 Z M246.149622,9.97412832 C245.378102,8.96401755 244.391128,8.21306966 243.231473,7.69630511 C242.074987,7.22949967 240.744235,7 239.335856,7 C237.987678,7 236.734554,7.24823433 235.589157,7.74158055 C233.905122,8.48003866 232.48407,9.74306743 231.505017,11.4369935 C230.535469,13.1137462 230,15.1948554 230,17.5866478 C230,19.133819 230.20595,20.5732659 230.632107,21.8565906 C231.267383,23.7690878 232.385848,25.3131366 233.952649,26.3747677 C235.497272,27.4301539 237.494983,28 239.82063,28 L239.823799,28 C241.690019,28 243.202957,27.7018066 244.441824,27.269348 C246.41894,26.5371348 247.428094,25.6378708 247.919204,25.1117389 C246.569442,23.1758234 245.80426,23.953312 244.245379,24.6621069 C243.334448,25.1101777 241.583876,25.484871 240.012322,25.484871 C238.806724,25.484871 237.765886,25.3115753 236.897729,24.979035 C236.237106,24.7370456 235.6652,24.4013828 235.170921,23.9736079 C234.445344,23.3335068 233.867101,22.5076203 233.496391,21.438183 C233.15103,20.4936436 232.957754,19.3695636 232.922901,18.0581369 L247.977821,18.0581369 L247.977821,17.5913315 L247.977821,17.4664337 C247.977821,17.2946993 248,16.9715263 248,16.6624043 C248,15.0246822 247.797219,13.6086536 247.378983,12.3768493 C247.079563,11.468218 246.664496,10.6704334 246.149622,9.97412832 L246.149622,9.97412832 Z" id="Fill-21"></path>
                    <path d="M260.153438,7.00003533 C258.58872,6.99529707 257.213518,7.46754357 256.03431,8.18144129 C255.26167,8.64421126 254.56516,9.20332585 253.951259,9.79876708 C253.951259,9.29967045 253.938301,8.9111332 253.891327,8.59209041 C253.876749,8.34412152 253.836254,8.14195579 253.764983,7.93979007 C253.71477,7.81027765 253.649978,7.67128871 253.539832,7.54493514 C253.463702,7.46754357 253.379473,7.39173142 253.287145,7.33329289 C253.144603,7.24642481 252.993963,7.19114512 252.830364,7.17535092 C252.695921,7.1579773 252.554999,7.15639788 252.407598,7.14376253 L251,7.14376253 L251,28 L253.951259,28 L253.951259,13.0302598 C254.986305,11.8377979 255.943602,11.1002089 256.601237,10.6958775 C256.623914,10.6816627 256.648211,10.6706068 256.669268,10.6548126 C257.864674,9.91880298 258.82035,9.71505784 259.580032,9.64556337 C260.950375,9.51763037 261.865557,9.33915594 262,7.26063959 C261.452511,7.10111819 260.820792,7.00319417 260.153438,7.00003533" id="Fill-23"></path>
                </g>
            </g>
        </g>
    </g>
</svg>